<svg width="24" height="24" viewBox="0 0 24 24" fill="none" xmlns="http://www.w3.org/2000/svg">
<path d="M12 0C8.8174 0 5.76515 1.26428 3.51472 3.51472C1.26428 5.76515 0 8.8174 0 12C0 15.1826 1.26428 18.2348 3.51472 20.4853C5.76515 22.7357 8.8174 24 12 24C15.1826 24 18.2348 22.7357 20.4853 20.4853C22.7357 18.2348 24 15.1826 24 12C24 8.8174 22.7357 5.76515 20.4853 3.51472C18.2348 1.26428 15.1826 0 12 0Z" fill="#039BE5"/>
<path d="M13.6244 15.1809H16.7299L17.2174 12.0262H13.6238V10.302C13.6238 8.99146 14.052 7.82935 15.2779 7.82935H17.2478V5.0763C16.9016 5.02956 16.1696 4.92725 14.7865 4.92725C11.8983 4.92725 10.205 6.45251 10.205 9.92746V12.0262H7.23596V15.1809H10.205V23.8519C10.793 23.9403 11.3886 24.0003 12 24.0003C12.5526 24.0003 13.092 23.9498 13.6244 23.8778V15.1809Z" fill="white"/>
</svg>
