<svg width="24" height="24" viewBox="0 0 24 24" fill="none" xmlns="http://www.w3.org/2000/svg">
<path d="M23.7666 9.6498H22.8V9.6H12V14.4H18.7818C17.7924 17.1942 15.1338 19.2 12 19.2C8.0238 19.2 4.8 15.9762 4.8 12C4.8 8.0238 8.0238 4.8 12 4.8C13.8354 4.8 15.5052 5.4924 16.7766 6.6234L20.1708 3.2292C18.0276 1.2318 15.1608 0 12 0C5.373 0 0 5.373 0 12C0 18.627 5.373 24 12 24C18.627 24 24 18.627 24 12C24 11.1954 23.9172 10.41 23.7666 9.6498Z" fill="#FFC107"/>
<path d="M1.38367 6.4146L5.32627 9.306C6.39307 6.6648 8.97667 4.8 12.0001 4.8C13.8355 4.8 15.5053 5.4924 16.7767 6.6234L20.1709 3.2292C18.0277 1.2318 15.1609 0 12.0001 0C7.39087 0 3.39367 2.6022 1.38367 6.4146Z" fill="#FF3D00"/>
<path d="M12 23.9997C15.0996 23.9997 17.916 22.8135 20.0454 20.8845L16.3314 17.7417C15.1266 18.6543 13.629 19.1997 12 19.1997C8.87882 19.1997 6.22862 17.2095 5.23022 14.4321L1.31702 17.4471C3.30302 21.3333 7.33622 23.9997 12 23.9997Z" fill="#4CAF50"/>
<path d="M23.7666 9.6499H22.8V9.6001H12V14.4001H18.7818C18.3066 15.7423 17.4432 16.8997 16.3296 17.7427L16.3314 17.7415L20.0454 20.8843C19.7826 21.1231 24 18.0001 24 12.0001C24 11.1955 23.9172 10.4101 23.7666 9.6499Z" fill="#1976D2"/>
</svg>
