<svg width="23" height="23" viewBox="0 0 23 23" fill="none" xmlns="http://www.w3.org/2000/svg">
<path d="M22.3796 10.0039C22.3791 10.0034 22.3786 10.0028 22.3781 10.0023L12.9959 0.620483C12.596 0.220398 12.0643 0 11.4987 0C10.9332 0 10.4015 0.220222 10.0014 0.620308L0.624123 9.9974C0.620965 10.0006 0.617806 10.0039 0.614648 10.007C-0.20658 10.833 -0.205177 12.1731 0.618684 12.997C0.99508 13.3736 1.4922 13.5917 2.02372 13.6145C2.0453 13.6166 2.06706 13.6176 2.089 13.6176H2.46294V20.5221C2.46294 21.8884 3.57458 23 4.94119 23H8.61179C8.9838 23 9.28562 22.6984 9.28562 22.3262V16.9131C9.28562 16.2896 9.79275 15.7825 10.4162 15.7825H12.5812C13.2047 15.7825 13.7118 16.2896 13.7118 16.9131V22.3262C13.7118 22.6984 14.0135 23 14.3857 23H18.0563C19.4229 23 20.5345 21.8884 20.5345 20.5221V13.6176H20.8813C21.4466 13.6176 21.9783 13.3974 22.3786 12.9973C23.2033 12.1721 23.2037 10.8297 22.3796 10.0039Z" fill="white"/>
</svg>
