<svg width="61" height="61" viewBox="0 0 61 61" fill="none" xmlns="http://www.w3.org/2000/svg">
<path d="M49.223 30.2344C49.18 34.0247 48.0168 37.7177 45.8797 40.8484C43.7426 43.9791 40.7271 46.4077 37.2129 47.8285C33.6986 49.2493 29.8426 49.5989 26.1302 48.8331C22.4178 48.0673 19.0148 46.2205 16.3496 43.5251C13.6844 40.8297 11.8761 37.4061 11.1522 33.6852C10.4284 29.9644 10.8214 26.1126 12.2817 22.6146C13.7421 19.1166 16.2045 16.1287 19.3592 14.0271C22.5138 11.9254 26.2196 10.8039 30.0102 10.8037V0C13.4336 0 0 13.4398 0 30.0164C0 46.593 13.4336 60.0341 30.0102 60.0341C46.5146 60.0341 59.9096 46.7101 60.0204 30.2344H49.223Z" fill="white"/>
<path d="M53.5017 6.30835H42.4813V17.3287H53.5017V6.30835Z" fill="#F90102"/>
</svg>
