<svg width="21" height="21" viewBox="0 0 21 21" fill="none" xmlns="http://www.w3.org/2000/svg">
<path d="M10.5007 8.288C12.7857 8.288 14.6447 6.42904 14.6447 4.144C14.6447 1.85896 12.7857 0 10.5007 0C8.21566 0 6.3567 1.85896 6.3567 4.144C6.3567 6.42904 8.21566 8.288 10.5007 8.288Z" fill="black"/>
<path d="M16.0614 10.2962C16.0596 10.2956 16.0562 10.2943 16.0545 10.2939C15.5149 10.1621 13.8626 9.93096 13.8626 9.93096C13.6761 9.87354 13.4768 9.97232 13.4097 10.1564L10.9226 16.9802C10.7792 17.3739 10.2224 17.3739 10.0789 16.9802L7.59189 10.1564C7.53773 10.0077 7.39744 9.91455 7.24712 9.91455C7.21148 9.91455 5.51261 10.1528 4.94702 10.2934C3.4015 10.6777 2.42667 12.1975 2.42667 13.7813V19.4592C2.42667 20.3101 3.11648 20.9999 3.96737 20.9999H17.0328C17.8837 20.9999 18.5735 20.3101 18.5735 19.4592V13.7624C18.5734 12.1855 17.5604 10.7859 16.0614 10.2962Z" fill="black"/>
<path d="M11.4386 9.80098C11.3394 9.6928 11.1943 9.63843 11.0475 9.63843H9.95259C9.8058 9.63843 9.66064 9.69287 9.56144 9.80098C9.40779 9.96842 9.38545 10.2103 9.49455 10.3993L10.0799 11.2817L9.80587 13.5931L10.3454 15.0284C10.398 15.1728 10.6022 15.1728 10.6548 15.0284L11.1943 13.5931L10.9204 11.2817L11.5057 10.3993C11.6146 10.2103 11.5923 9.96842 11.4386 9.80098Z" fill="black"/>
</svg>
