<svg width="18" height="21" viewBox="0 0 18 21" fill="none" xmlns="http://www.w3.org/2000/svg">
<path d="M17.3 14.5167C16.0022 13.4198 15.258 11.8165 15.258 10.1179V7.72487C15.258 4.70444 13.0144 2.20416 10.1081 1.7853V0.858318C10.1081 0.383668 9.7236 0 9.24981 0C8.77602 0 8.39149 0.383668 8.39149 0.858318V1.7853C5.48437 2.20416 3.24158 4.70444 3.24158 7.72487V10.1179C3.24158 11.8165 2.49742 13.4198 1.19192 14.5236C0.858031 14.8094 0.666626 15.2249 0.666626 15.6643C0.666626 16.4926 1.34041 17.1664 2.16868 17.1664H16.3309C17.1592 17.1664 17.833 16.4926 17.833 15.6643C17.833 15.2249 17.6416 14.8094 17.3 14.5167Z" fill="white"/>
<path d="M9.2499 20.5999C10.8043 20.5999 12.1047 19.4918 12.4034 18.0249H6.09644C6.39513 19.4918 7.69548 20.5999 9.2499 20.5999Z" fill="white"/>
</svg>
