<svg width="23" height="21" viewBox="0 0 23 21" fill="none" xmlns="http://www.w3.org/2000/svg">
<path d="M14.6129 17.5576C11.4321 17.5576 8.72899 15.4834 7.77919 12.6174H3.95204V11.206H7.46521C7.43246 10.9278 7.41368 10.6457 7.41368 10.3588C7.41368 9.97496 7.44468 9.5981 7.50276 9.22997H3.95204V7.81859H7.87788C8.15081 7.09762 8.53641 6.4321 9.01284 5.84257H3.95204V4.43119H10.5351V4.43032C11.695 3.62986 13.0998 3.15999 14.6125 3.15999C15.5322 3.15999 16.4112 3.3351 17.2204 3.65083V0.0546875H0V18.1223C0 19.6751 1.27033 20.9455 2.8232 20.9455H14.3977C15.9505 20.9455 17.2209 19.6751 17.2209 18.1223V17.0668C16.4117 17.3825 15.5326 17.5576 14.6129 17.5576Z" fill="white"/>
<path d="M19.4274 13.568C20.041 12.6492 20.3995 11.5457 20.3995 10.3583C20.3995 7.16217 17.8086 4.57129 14.612 4.57129C11.415 4.57129 8.82458 7.16217 8.82458 10.3583C8.82458 13.5544 11.4146 16.1457 14.612 16.1457C15.9068 16.1457 17.0981 15.7156 18.0619 14.9973L21.603 18.5384L23 17.141L19.4274 13.568ZM14.6125 14.7344C12.1998 14.7344 10.2368 12.7714 10.2368 10.3583C10.2368 7.94559 12.1998 5.98267 14.6125 5.98267C17.0252 5.98267 18.9881 7.94559 18.9881 10.3583C18.9881 12.771 17.0256 14.7344 14.6125 14.7344Z" fill="white"/>
</svg>
