<svg width="21" height="25" viewBox="0 0 21 25" fill="none" xmlns="http://www.w3.org/2000/svg">
<path d="M9.91055 11.6195C11.5069 11.6195 12.8891 11.047 14.0186 9.91739C15.148 8.78797 15.7205 7.40607 15.7205 5.80957C15.7205 4.21363 15.148 2.83154 14.0184 1.70176C12.8888 0.572529 11.5067 0 9.91055 0C8.31405 0 6.93214 0.572529 5.80272 1.70194C4.6733 2.83136 4.10059 4.21345 4.10059 5.80957C4.10059 7.40607 4.6733 8.78816 5.8029 9.91757C6.93251 11.0468 8.3146 11.6195 9.91055 11.6195Z" fill="black"/>
<path d="M20.0761 18.549C20.0436 18.079 19.9777 17.5663 19.8807 17.0248C19.7828 16.4794 19.6567 15.9637 19.5058 15.4924C19.3499 15.0053 19.1379 14.5242 18.8759 14.0632C18.6038 13.5847 18.2844 13.168 17.9259 12.8252C17.551 12.4665 17.092 12.1781 16.5613 11.9678C16.0323 11.7585 15.4462 11.6525 14.8192 11.6525C14.5729 11.6525 14.3348 11.7536 13.8749 12.053C13.5919 12.2376 13.2608 12.451 12.8912 12.6872C12.5753 12.8885 12.1472 13.0771 11.6185 13.2479C11.1026 13.4148 10.5788 13.4995 10.0619 13.4995C9.54494 13.4995 9.02136 13.4148 8.50496 13.2479C7.97679 13.0773 7.54872 12.8887 7.2331 12.6873C6.86706 12.4534 6.5358 12.24 6.24852 12.0528C5.78917 11.7534 5.55084 11.6523 5.30461 11.6523C4.67742 11.6523 4.09145 11.7585 3.56272 11.968C3.03233 12.1779 2.57317 12.4663 2.19792 12.8254C1.83961 13.1684 1.51994 13.5849 1.24831 14.0632C0.986424 14.5242 0.774417 15.0051 0.618355 15.4926C0.467631 15.9639 0.341568 16.4794 0.243661 17.0248C0.146675 17.5655 0.0807911 18.0784 0.048217 18.5496C0.016195 19.0111 0 19.4902 0 19.974C0 21.2331 0.400275 22.2525 1.1896 23.0043C1.96917 23.7461 3.00068 24.1225 4.25506 24.1225H15.8698C17.1242 24.1225 18.1554 23.7463 18.9351 23.0043C19.7246 22.253 20.1249 21.2335 20.1249 19.9738C20.1247 19.4878 20.1083 19.0084 20.0761 18.549Z" fill="black"/>
</svg>
