<svg width="23" height="24" viewBox="0 0 23 24" fill="none" xmlns="http://www.w3.org/2000/svg">
<circle cx="11.3067" cy="12" r="11.3067" fill="#FF453A"/>
<path d="M16.6323 8.27429C17.0719 7.83043 17.0688 7.114 16.6254 6.67438C16.1842 6.23741 15.4736 6.23741 15.0324 6.67438L11.307 10.3997L7.58164 6.67438C7.13778 6.23476 6.42134 6.23794 5.98172 6.68127C5.54475 7.12248 5.54475 7.83308 5.98172 8.27429L9.7071 11.9997L5.98119 15.7255C5.54157 16.1694 5.54422 16.8853 5.98808 17.3255C6.4293 17.7624 7.1399 17.7624 7.58111 17.3255L11.3065 13.6001L15.0319 17.3255C15.4757 17.7651 16.1916 17.7624 16.6318 17.3186C17.0688 16.8773 17.0688 16.1667 16.6318 15.7255L12.9064 12.0002L16.6323 8.27429Z" fill="white"/>
</svg>
