<svg width="21" height="21" viewBox="0 0 21 21" fill="none" xmlns="http://www.w3.org/2000/svg">
<path d="M20.3204 19.7071H19.6254V6.2147H20.2387C20.4614 6.2147 20.6668 6.0937 20.7753 5.89847C20.883 5.70388 20.877 5.46559 20.7584 5.27623L17.692 0.268699C17.468 -0.0895663 16.8764 -0.0895663 16.6523 0.268699L13.5858 5.27623C13.4673 5.46559 13.4613 5.70388 13.5691 5.89847C13.6774 6.0937 13.8829 6.2147 14.1057 6.2147H14.719V19.7071H13.4924V9.28116C13.4924 8.94232 13.218 8.66787 12.8791 8.66787H9.19939C8.86042 8.66787 8.5861 8.94232 8.5861 9.28116V19.7071H7.35951V12.9609C7.35951 12.6221 7.08506 12.3476 6.74622 12.3476H3.06646C2.72749 12.3476 2.45317 12.6221 2.45317 12.9609V19.7071H0.613293C0.274321 19.7071 0 19.9816 0 20.3204C0 20.6594 0.274321 20.9337 0.613293 20.9337H20.3204C20.6593 20.9337 20.9337 20.6594 20.9337 20.3204C20.9337 19.9816 20.6593 19.7071 20.3204 19.7071Z" fill="black"/>
<path d="M1.87552 4.98811C2.21386 4.98811 2.48882 5.26307 2.48882 5.60141C2.48882 5.93987 2.21386 6.2147 1.87552 6.2147C1.65678 6.2147 1.45324 6.09741 1.34362 5.90741C1.17471 5.61457 0.799194 5.51222 0.505836 5.68407C0.212861 5.85362 0.112306 6.2285 0.282367 6.52198C0.503025 6.90401 0.857457 7.17655 1.26223 7.32156V8.00539C1.26223 8.34448 1.53655 8.61868 1.87552 8.61868C2.21437 8.61868 2.48882 8.34448 2.48882 8.00539V7.32821C3.20113 7.07433 3.7154 6.39996 3.7154 5.60141C3.7154 4.58692 2.89001 3.76153 1.87552 3.76153C1.53706 3.76153 1.26223 3.4867 1.26223 3.14824C1.26223 2.8099 1.53706 2.53494 1.87552 2.53494C2.09414 2.53494 2.2978 2.65236 2.4073 2.84223C2.5757 3.13456 2.94942 3.23512 3.24521 3.0657C3.53806 2.89615 3.63874 2.52127 3.46855 2.22766C3.24789 1.84563 2.89346 1.5731 2.48882 1.42821V0.613293C2.48882 0.274448 2.21437 0 1.87552 0C1.53655 0 1.26223 0.274448 1.26223 0.613293V1.42131C0.549916 1.67544 0.0356445 2.34968 0.0356445 3.14824C0.0356445 4.16272 0.861034 4.98811 1.87552 4.98811Z" fill="black"/>
</svg>
