<svg width="167" height="114" viewBox="0 0 167 114" fill="none" xmlns="http://www.w3.org/2000/svg">
<path d="M32.1464 113.086H6.51714H0V108.654V91.2236H6.51714V108.654H32.1464V113.086Z" fill="#B0B0B0"/>
<path d="M134.854 113.086H160.483H167V108.654V91.2236H160.483V108.654H134.854V113.086Z" fill="#B0B0B0"/>
<path d="M0 21.8628V4.42781V-5.28382e-05H6.51714H32.1464V4.42781H6.51714V21.8628H0Z" fill="#B0B0B0"/>
<path d="M166.79 21.8628V4.42781V-5.28382e-05H160.273H134.637V4.42781H160.273V21.8628H166.79Z" fill="#B0B0B0"/>
<path d="M110.359 31.5591H56.6392C54.5211 31.5591 52.4901 32.3845 50.9917 33.8534C49.4946 35.3235 48.6533 37.3163 48.6533 39.3945V75.0084C48.6533 77.0866 49.4946 79.0793 50.9917 80.5494C52.4901 82.0171 54.5211 82.8425 56.6392 82.8425H110.36C112.478 82.8425 114.509 82.0171 116.008 80.5482C117.505 79.0781 118.346 77.0854 118.346 75.0072V39.3945C118.346 37.3163 117.505 35.3235 116.008 33.8534C114.508 32.3857 112.477 31.5603 110.359 31.5591ZM70.432 42.955C72.3572 42.955 74.204 43.7059 75.5655 45.0417C76.927 46.3776 77.6923 48.1896 77.6923 50.0785C77.6923 51.9675 76.9282 53.7795 75.5655 55.1153C74.204 56.4511 72.3572 57.2008 70.432 57.2008C68.5067 57.2008 66.6599 56.4511 65.2984 55.1141C63.937 53.7783 63.1716 51.9662 63.1716 50.0773C63.1716 48.1884 63.9357 46.3763 65.2984 45.0405C66.6599 43.7059 68.5067 42.955 70.432 42.955ZM83.4992 69.3098C83.4992 69.8764 83.2702 70.4197 82.8607 70.8215C82.4525 71.222 81.8987 71.4478 81.32 71.4478H59.5414C58.964 71.4478 58.4102 71.2232 58.0007 70.8215C57.5925 70.4197 57.3623 69.8776 57.3623 69.3098V67.8849C57.3623 65.8067 58.2036 63.8139 59.7007 62.345C61.1991 60.8749 63.2288 60.0495 65.3482 60.0495H75.512C77.6301 60.0495 79.6611 60.8749 81.1595 62.345C82.6579 63.8139 83.4992 65.8067 83.4992 67.8849V69.3098ZM107.456 71.4466H91.4851C90.7073 71.4466 89.9879 71.0388 89.5984 70.3782C89.2089 69.7176 89.2089 68.902 89.5984 68.2414C89.9879 67.5808 90.706 67.173 91.4851 67.173H107.456C108.233 67.173 108.953 67.5808 109.342 68.2414C109.732 68.902 109.732 69.7176 109.342 70.3782C108.953 71.04 108.233 71.4466 107.456 71.4466ZM107.456 60.0507H91.4851C90.7073 60.0507 89.9879 59.6429 89.5984 58.9823C89.2089 58.3217 89.2089 57.5061 89.5984 56.8455C89.9879 56.1849 90.706 55.7771 91.4851 55.7771H107.456C108.233 55.7771 108.953 56.1849 109.342 56.8455C109.732 57.5061 109.732 58.3217 109.342 58.9823C108.953 59.6429 108.233 60.0507 107.456 60.0507ZM107.456 48.6548H91.4851C90.7073 48.6548 89.9879 48.247 89.5984 47.5864C89.2089 46.9258 89.2089 46.1102 89.5984 45.4496C89.9879 44.789 90.706 44.3812 91.4851 44.3812H107.456C108.233 44.3812 108.953 44.789 109.342 45.4496C109.732 46.1102 109.732 46.9258 109.342 47.5864C108.953 48.247 108.233 48.6536 107.456 48.6548Z" fill="#B0B0B0"/>
<path opacity="0.4" d="M84.1575 76.2677C95.051 76.2677 103.882 67.4367 103.882 56.5433C103.882 45.6498 95.051 36.8188 84.1575 36.8188C73.264 36.8188 64.4331 45.6498 64.4331 56.5433C64.4331 67.4367 73.264 76.2677 84.1575 76.2677Z" fill="#010401"/>
<path d="M84.1574 72.2918C92.8552 72.2918 99.9061 65.2409 99.9061 56.5431C99.9061 47.8454 92.8552 40.7944 84.1574 40.7944C75.4596 40.7944 68.4087 47.8454 68.4087 56.5431C68.4087 65.2409 75.4596 72.2918 84.1574 72.2918Z" fill="#F90102"/>
<path d="M91.5602 54.9775H85.723V49.1403C85.723 48.2774 85.0203 47.5747 84.1574 47.5747C83.2945 47.5747 82.5918 48.2774 82.5918 49.1403V54.9775H76.7546C75.8916 54.9775 75.189 55.6802 75.189 56.5431C75.189 57.4061 75.8916 58.1088 76.7546 58.1088H82.5918V63.946C82.5918 64.8089 83.2945 65.5116 84.1574 65.5116C85.0203 65.5116 85.723 64.8089 85.723 63.946V58.1088H91.5602C92.4232 58.1088 93.1258 57.4061 93.1258 56.5431C93.1258 55.6802 92.4232 54.9775 91.5602 54.9775Z" fill="white"/>
</svg>
