<svg width="20" height="20" viewBox="0 0 20 20" fill="none" xmlns="http://www.w3.org/2000/svg">
<path d="M13 6H7C6.73478 6 6.48043 6.10536 6.29289 6.29289C6.10536 6.48043 6 6.73478 6 7V8C6 9.06087 6.42143 10.0783 7.17157 10.8284C7.92172 11.5786 8.93913 12 10 12C11.0609 12 12.0783 11.5786 12.8284 10.8284C13.5786 10.0783 14 9.06087 14 8V7C14 6.73478 13.8946 6.48043 13.7071 6.29289C13.5196 6.10536 13.2652 6 13 6Z" fill="black"/>
<path d="M7 6H1C0.734784 6 0.48043 6.10536 0.292893 6.29289C0.105357 6.48043 0 6.73478 0 7V8C0 9.06087 0.421427 10.0783 1.17157 10.8284C1.92172 11.5786 2.93913 12 4 12C5.06087 12 6.07828 11.5786 6.82843 10.8284C7.57857 10.0783 8 9.06087 8 8V7C8 6.73478 7.89464 6.48043 7.70711 6.29289C7.51957 6.10536 7.26522 6 7 6Z" fill="black"/>
<path d="M19 6H13C12.7348 6 12.4804 6.10536 12.2929 6.29289C12.1054 6.48043 12 6.73478 12 7V8C12 9.06087 12.4214 10.0783 13.1716 10.8284C13.9217 11.5786 14.9391 12 16 12C17.0609 12 18.0783 11.5786 18.8284 10.8284C19.5786 10.0783 20 9.06087 20 8V7C20 6.73478 19.8946 6.48043 19.7071 6.29289C19.5196 6.10536 19.2652 6 19 6Z" fill="black"/>
<path d="M19.8499 7.53C19.7598 7.67411 19.6345 7.79289 19.4858 7.87513C19.3371 7.95736 19.1698 8.00034 18.9999 8H0.999904C0.82944 7.99948 0.661937 7.9554 0.513303 7.87194C0.364669 7.78847 0.239839 7.6684 0.150667 7.52312C0.0614942 7.37784 0.0109404 7.21217 0.00380602 7.04186C-0.00332835 6.87154 0.0331935 6.70223 0.109903 6.55L1.9999 3.72L2.1099 3.55C2.193 3.38509 2.32015 3.2464 2.47724 3.14932C2.63433 3.05224 2.81524 3.00056 2.9999 3H3.9999V4H15.9999V3H16.9999C17.1846 3.00056 17.3655 3.05224 17.5226 3.14932C17.6797 3.2464 17.8068 3.38509 17.8899 3.55L17.9999 3.72L19.8899 6.55C19.968 6.70303 20.0053 6.87359 19.9983 7.04524C19.9913 7.21689 19.9402 7.38384 19.8499 7.53Z" fill="black"/>
<path d="M17 0H3C2.73478 0 2.48043 0.105357 2.29289 0.292893C2.10536 0.48043 2 0.734784 2 1V5C2 5.26522 2.10536 5.51957 2.29289 5.70711C2.48043 5.89464 2.73478 6 3 6H17C17.2652 6 17.5196 5.89464 17.7071 5.70711C17.8946 5.51957 18 5.26522 18 5V1C18 0.734784 17.8946 0.48043 17.7071 0.292893C17.5196 0.105357 17.2652 0 17 0ZM16 4H4V2H16V4Z" fill="black"/>
<path d="M16 13C14.9174 13.0044 13.8634 12.653 13 12C12.1345 12.6491 11.0819 13 10 13C8.91815 13 7.86548 12.6491 7 12C6.13452 12.6491 5.08185 13 4 13C2.91815 13 1.86548 12.6491 1 12V17C1 17.7956 1.31607 18.5587 1.87868 19.1213C2.44129 19.6839 3.20435 20 4 20H16C16.7956 20 17.5587 19.6839 18.1213 19.1213C18.6839 18.5587 19 17.7956 19 17V12C18.1366 12.653 17.0826 13.0044 16 13ZM12.5 17.5H7.5C7.23478 17.5 6.98043 17.3946 6.79289 17.2071C6.60536 17.0196 6.5 16.7652 6.5 16.5C6.5 16.2348 6.60536 15.9804 6.79289 15.7929C6.98043 15.6054 7.23478 15.5 7.5 15.5H12.5C12.7652 15.5 13.0196 15.6054 13.2071 15.7929C13.3946 15.9804 13.5 16.2348 13.5 16.5C13.5 16.7652 13.3946 17.0196 13.2071 17.2071C13.0196 17.3946 12.7652 17.5 12.5 17.5Z" fill="black"/>
</svg>
