<svg width="17" height="17" viewBox="0 0 17 17" fill="none" xmlns="http://www.w3.org/2000/svg">
<g clip-path="url(#clip0_358_5286)">
<path d="M16.7705 5.58308L8.80175 0.0935C8.62042 -0.0311667 8.381 -0.0311667 8.19896 0.0935L0.230208 5.58308C0.0857083 5.68225 0 5.84587 0 6.02083V16.2917C0 16.6827 0.317333 17 0.708333 17H2.125V8.5C2.125 8.109 2.44233 7.79167 2.83333 7.79167H14.1667C14.5577 7.79167 14.875 8.109 14.875 8.5V17H16.2917C16.6827 17 17 16.6827 17 16.2917V6.02083C17 5.84587 16.9143 5.68225 16.7705 5.58308Z" fill="black"/>
<path d="M6.55212 13.458V13.9893C6.55212 14.2825 6.31412 14.5205 6.02087 14.5205C5.72762 14.5205 5.48962 14.2825 5.48962 13.9893V13.458H4.25004C4.05454 13.458 3.89587 13.6167 3.89587 13.8122V16.6455C3.89587 16.841 4.05454 16.9997 4.25004 16.9997H7.79171C7.98721 16.9997 8.14587 16.841 8.14587 16.6455V13.8122C8.14587 13.6167 7.98721 13.458 7.79171 13.458H6.55212Z" fill="black"/>
<path d="M11.5104 13.458V13.9893C11.5104 14.2825 11.2724 14.5205 10.9791 14.5205C10.6859 14.5205 10.4479 14.2825 10.4479 13.9893V13.458H9.20829C9.01279 13.458 8.85413 13.6167 8.85413 13.8122V16.6455C8.85413 16.841 9.01279 16.9997 9.20829 16.9997H12.75C12.9455 16.9997 13.1041 16.841 13.1041 16.6455V13.8122C13.1041 13.6167 12.9455 13.458 12.75 13.458H11.5104Z" fill="black"/>
<path d="M9.03125 9.20801V9.73926C9.03125 10.0325 8.79325 10.2705 8.5 10.2705C8.20675 10.2705 7.96875 10.0325 7.96875 9.73926V9.20801H6.72917C6.53367 9.20801 6.375 9.36667 6.375 9.56217V12.3955C6.375 12.591 6.53367 12.7497 6.72917 12.7497H10.2708C10.4663 12.7497 10.625 12.591 10.625 12.3955V9.56217C10.625 9.36667 10.4663 9.20801 10.2708 9.20801H9.03125Z" fill="black"/>
</g>
<defs>
<clipPath id="clip0_358_5286">
<rect width="17" height="17" fill="white"/>
</clipPath>
</defs>
</svg>
