<svg width="22" height="19" viewBox="0 0 22 19" fill="none" xmlns="http://www.w3.org/2000/svg">
<path d="M0.626216 15.0524H17.0164C17.1634 15.0524 17.3055 15.001 17.4182 14.9072C17.5756 14.7754 21.1667 11.6861 21.3857 5.01758H3.78292C3.56479 11.0708 0.257562 13.916 0.223193 13.9444C0.021702 14.1147 -0.0524302 14.3928 0.0382177 14.6402C0.128238 14.887 0.362844 15.0524 0.626216 15.0524Z" fill="black"/>
<path d="M20.7796 1.25435H17.6438V0.627176C17.6438 0.275957 17.3678 0 17.0166 0C16.6654 0 16.3894 0.275957 16.3894 0.627176V1.25435H13.2117V0.627176C13.2117 0.275957 12.9358 0 12.5845 0C12.2333 0 11.9574 0.275957 11.9574 0.627176V1.25435H8.82148V0.627176C8.82148 0.275957 8.54553 0 8.19431 0C7.84309 0 7.56713 0.275957 7.56713 0.627176V1.25435H4.43125C4.08003 1.25435 3.80408 1.53031 3.80408 1.88153V3.76306H21.4068V1.88153C21.4068 1.53031 21.1309 1.25435 20.7796 1.25435Z" fill="black"/>
<path d="M18.2238 15.8682C17.8832 16.1518 17.4557 16.3062 17.0166 16.3062H3.80408V18.1877C3.80408 18.5344 4.08459 18.8149 4.43125 18.8149H20.7796C21.1263 18.8149 21.4068 18.5344 21.4068 18.1877V11.1572C20.1976 14.1238 18.5103 15.6284 18.2238 15.8682Z" fill="black"/>
</svg>
